<svg width="273" height="72" viewBox="0 0 273 72" fill="none" xmlns="http://www.w3.org/2000/svg">
<path d="M7.19919 59.5231C6.89919 57.5231 6.59916 56.0231 6.29916 54.4231C5.79916 51.6231 5.19918 48.9231 4.59918 46.2231C4.39918 45.3231 3.99918 44.5231 3.59918 43.8231C3.19918 43.1231 2.49919 42.7231 1.69919 42.9231C0.799188 43.1231 0.199182 43.7231 0.0991821 44.6231C-0.000817873 45.3231 -0.000823975 46.0231 -0.000823975 46.6231C0.699176 54.0231 1.89918 61.3231 4.09918 68.4231C4.29918 69.1231 4.59918 69.8231 4.99918 70.5231C5.69918 71.6231 6.59916 71.8231 7.79916 71.2231C8.49916 70.9231 9.09917 70.6231 9.89917 70.4231C14.4992 69.3231 19.0992 68.3231 23.6992 67.2231C24.2992 67.1231 24.8992 66.8231 25.3992 66.5231C26.1992 66.1231 26.5992 65.4231 26.5992 64.5231C26.4992 63.6231 25.9992 62.9231 25.0992 62.7231C24.2992 62.5231 23.2992 62.4231 22.4992 62.5231C19.4992 62.9231 16.3992 63.5231 13.3992 64.0231C12.8992 64.1231 12.3992 64.1231 11.5992 64.2231C12.1992 63.3231 12.4992 62.7231 12.8992 62.1231C23.4992 46.3231 37.2992 34.1231 54.1992 25.3231C67.9992 17.8231 82.6992 12.8231 97.9992 9.92308C111.699 7.32308 125.499 5.72308 139.499 5.92308C159.599 6.12308 179.399 8.72308 198.599 14.8231C216.899 20.6231 233.499 29.4231 247.999 42.0231C256.199 49.1231 262.999 57.2231 268.399 66.5231C268.699 67.1231 269.099 67.7231 269.599 68.2231C270.599 69.2231 272.199 68.7231 272.399 67.3231C272.499 66.5231 272.499 65.6231 272.199 64.9231C271.499 63.1231 270.799 61.3231 269.799 59.7231C265.699 52.3231 260.199 45.9231 253.999 40.1231C241.499 28.3231 226.999 19.7231 211.299 13.2231C199.799 8.42308 187.999 5.42308 175.899 3.32308C162.399 0.923077 148.899 -0.176923 135.199 0.0230769C125.499 0.123077 115.899 1.12308 106.299 2.52308C94.3992 4.32308 82.7992 7.02308 71.3992 11.1231C57.6992 16.1231 44.6992 22.6231 33.0992 31.6231C23.5992 39.0231 15.3992 47.7231 8.49918 57.7231C8.19918 58.1231 7.79919 58.6231 7.19919 59.5231Z" fill="#FFD470"/>
</svg>
