<svg width="240" height="240" viewBox="0 0 240 240" fill="none" xmlns="http://www.w3.org/2000/svg">
<path d="M79.2921 156.751C77.6671 156.459 76.2505 156.209 74.8338 156.001C64.6671 154.417 58.2505 161.251 60.3755 171.459C62.4171 181.459 68.5421 188.751 76.4171 194.667C95.3755 208.876 117.375 212.667 140.334 212.584C146.667 212.542 149.292 209.292 147.834 203.167C142 178.751 133.167 155.584 116.584 136.334C112.375 131.417 106.125 127.376 100 125.167C86.2505 120.167 74.3338 130.626 76.3755 145.126C76.8755 148.959 78.2505 152.667 79.2921 156.751ZM138.625 203.584C132.375 202.917 127.292 202.459 122.209 201.792C106.084 199.667 91.1255 194.334 78.9171 183.417C74.5838 179.501 71.3755 173.876 69.0005 168.459C67.1255 164.209 69.7505 162.084 74.2088 163.709C78.0838 165.084 81.5421 167.542 85.4171 168.917C87.5005 169.667 90.7504 170.126 92.1254 169.042C93.4171 168.001 93.4171 164.626 92.9588 162.501C92.4588 159.959 90.7504 157.709 89.7504 155.251C88.1671 151.417 86.1671 147.667 85.3755 143.667C83.7505 135.376 90.0421 130.042 97.6255 133.584C102.417 135.834 107.125 139.334 110.5 143.376C124.834 160.751 131.25 181.917 138.625 203.584Z" fill="#FF90E8"/>
<path d="M160.75 73.9174C157.875 71.7507 154.084 68.5424 149.917 65.8757C140.959 60.1257 131.709 63.5424 128.75 73.6674C126.125 82.7507 127.292 91.6674 131 100.334C138.459 117.876 149.334 133.292 160.667 148.417C164.042 152.876 170.084 153.126 173.417 148.501C178.334 141.667 182.959 134.542 186.75 127.084C194.417 111.959 200.834 96.2507 200.375 78.8757C200.25 74.1257 198.667 69.0007 196.292 64.8757C191.542 56.6673 180.959 54.2924 173.5 60.1257C168.084 64.334 164 70.2924 160.75 73.9174ZM168.334 142.001C164.959 137.251 161.625 133.292 159.042 128.876C152.375 117.667 145.334 106.584 139.875 94.7507C137.375 89.2924 135.709 83.1257 137.875 75.9173C139 72.1673 141.084 70.8757 144.792 72.584C150.167 75.0424 152.75 79.7924 155.084 84.834C156.542 87.959 156.334 92.9174 161.125 92.8757C166 92.834 166.042 87.8757 167.709 84.584C170.084 79.8757 172.167 74.8757 175.459 70.8757C177.334 68.584 182.042 66.334 184.292 67.1674C187.209 68.2507 189.834 72.1674 190.959 75.4174C192.084 78.6674 191.667 82.6674 191.125 86.209C188.084 106.542 178.709 124.167 168.334 142.001Z" fill="#FF90E8"/>
<path d="M63.8746 55.5003C60.1246 55.0419 57.1662 54.4169 54.2496 54.3753C44.6246 54.2086 39.1662 60.0003 39.6246 69.6253C40.1246 79.4586 44.9579 86.9586 52.8746 92.3753C65.3329 100.917 79.2079 106.209 94.0412 108.959C97.6662 109.625 99.7912 109.042 101.25 104.167C106.75 86.1253 105.708 68.2086 101.625 50.3753C100.291 44.6253 96.9996 39.0836 93.5412 34.1669C89.5829 28.5419 83.5412 26.0419 76.4579 28.0836C68.9162 30.2919 64.9579 35.7503 63.9579 43.2086C63.4162 47.1253 63.8746 51.1253 63.8746 55.5003ZM94.7912 99.6253C79.9162 96.0836 65.9162 91.2919 54.3329 81.4586C51.7079 79.2086 49.7496 75.7086 48.5829 72.3753C45.8746 64.6253 49.0412 60.9169 57.2079 61.7919C59.1662 62.0003 61.1246 62.5003 62.9996 63.0419C70.7496 65.2919 72.7496 63.8336 73.0412 55.6669C73.2079 51.2086 72.9996 46.6253 74.0412 42.3753C75.8746 34.8753 83.2079 33.0419 87.7079 39.1669C90.9162 43.5419 93.2912 48.9586 94.5829 54.2919C98.1246 69.1669 95.8329 84.1669 94.7912 99.6253Z" fill="#FF90E8"/>
</svg>
