<svg width="240" height="240" viewBox="0 0 240 240" fill="none" xmlns="http://www.w3.org/2000/svg">
<path d="M214.333 76.1248C215.624 77.5414 215.791 79.6248 214.791 81.2914C213.874 82.8331 213.083 84.1664 212.166 85.4164C202.666 98.5831 197.458 105.458 188.083 118.708C185.708 122.041 179.958 132.25 177.749 135.75C177.708 135.791 177.708 135.833 177.666 135.875C175.666 138.875 170.749 138.666 169.166 135.375C169.166 135.375 169.166 135.333 169.124 135.333C166.791 130.208 164.916 124.916 162.749 119.708C156.791 105.333 148.499 92.8748 134.708 84.7081C129.708 81.7497 129.624 79.5831 133.499 75.2914C134.958 73.7081 136.416 72.0831 137.999 70.6664C153.291 57.0414 163.833 40.2081 171.708 21.4581C172.208 20.2914 173.208 19.3747 174.291 18.4581C175.708 17.2914 177.749 17.4581 178.999 18.7914C180.041 19.8747 180.999 21.0414 181.583 22.3331C182.874 25.3331 183.208 28.7081 183.999 31.9164C188.249 49.3748 197.708 63.2914 212.083 73.9998C212.874 74.5831 213.583 75.3331 214.333 76.1248ZM176.041 34.2914C171.083 42.5414 166.916 51.0414 161.249 58.4581C155.458 65.9998 148.208 72.4164 141.583 79.3748C158.416 89.4581 168.166 105.416 174.041 125C182.666 107.166 194.583 92.9998 207.666 79.7498C186.999 63.9998 182.083 56.8748 176.041 34.2914Z" fill="#FFD470"/>
<path d="M57.2085 219.916C53.4169 209.166 50.1252 198.208 45.9585 187.624C41.8752 177.374 35.7919 168.249 27.0419 161.208C23.8335 158.624 23.9169 156.291 26.5419 153.374C41.2919 137.333 52.6252 119.166 60.7502 98.9578C61.6252 96.7911 63.9585 93.3328 65.5835 93.3328C70.0002 92.2911 71.5835 100.916 71.7502 101.708C75.4585 122.041 88.0419 136.833 102.167 150.666C106.75 155.166 107.125 156.541 102.625 160.874C85.6669 177.124 74.4169 197.124 64.7502 218.166C61.7085 225.499 57.6669 221.208 57.2085 219.916ZM32.1252 156.249C41.1252 161.958 47.0835 169.583 51.4169 178.208C55.6252 186.666 58.7085 195.624 62.2085 204.208C70.2919 186.124 81.2085 169.416 97.7919 156.708C81.7502 144.083 69.0835 129.666 65.2085 108.999C58.2502 127.583 47.2085 143.041 32.1252 156.249Z" fill="#FFD470"/>
<path d="M171.084 175.084C161.876 187.459 156.251 201.584 151.084 215.959C150.751 216.875 149.668 222.084 145.709 222.042C144.584 222.042 142.709 220.25 142.001 218.834C138.876 212.459 136.918 205.334 132.959 199.584C128.293 192.75 121.876 187.125 116.459 180.834C115.668 179.917 115.376 177.834 115.876 176.709C116.834 174.625 118.543 172.959 119.876 171.042C126.668 161.042 133.334 150.959 140.334 141.125C141.793 139.084 144.668 136.625 146.376 136.625C150.626 136.584 151.459 139.917 152.209 142.292C155.626 153.209 161.501 162.334 170.043 169.875C173.084 172.709 171.459 174.584 171.084 175.084ZM124.293 177.959C134.209 185 140.959 195.167 145.043 206.542C151.084 195.459 157.251 184.167 163.584 172.5C155.084 166.625 149.168 155.667 146.459 147.584C139.043 157.75 131.709 167.792 124.293 177.959Z" fill="#FFD470"/>
</svg>
