<svg width="33" height="32" viewBox="0 0 33 32" fill="none" xmlns="http://www.w3.org/2000/svg">
<path d="M32.0106 16.5298C28.5219 17.5524 25.3558 19.4591 22.8178 22.0658C20.2798 24.6724 18.4557 27.8911 17.5214 31.4112C17.4815 31.5769 17.3879 31.7245 17.2553 31.831C17.1227 31.9376 16.9584 31.9969 16.7884 31.9999C16.6184 32.0028 16.4522 31.9492 16.3158 31.8473C16.1794 31.7454 16.0806 31.6011 16.0348 31.437C14.9875 27.9466 13.0607 24.7849 10.4402 22.2565C7.81973 19.7281 4.59393 17.9184 1.07376 17.0018C0.911353 16.9561 0.767882 16.8593 0.664582 16.7257C0.561281 16.592 0.503614 16.4286 0.500164 16.2596C0.496714 16.0907 0.547686 15.9251 0.645448 15.7875C0.743209 15.6499 0.882592 15.5475 1.04301 15.4954C4.52396 14.4585 7.68037 12.5434 10.2101 9.93332C12.7398 7.32329 14.5581 4.10577 15.491 0.588775C15.5308 0.423153 15.6244 0.275504 15.7571 0.168976C15.8897 0.0624481 16.0539 0.00305741 16.2239 0.000114847C16.394 -0.00282771 16.5602 0.0508475 16.6966 0.152719C16.8329 0.254591 16.9318 0.398902 16.9776 0.563041C18.0121 4.06035 19.9309 7.231 22.5478 9.76743C25.1648 12.3039 28.3909 14.12 31.9134 15.0395C32.073 15.0815 32.2154 15.1726 32.3204 15.3002C32.4253 15.4277 32.4876 15.585 32.4983 15.7499C32.5091 15.9148 32.4677 16.0789 32.3801 16.2189C32.2926 16.3589 32.1634 16.4676 32.0106 16.5298Z" fill="#FFC847"/>
</svg>
